<?xml version="1.0" encoding="UTF-8"?><svg id="Ebene_2_Kopie" xmlns="http://www.w3.org/2000/svg" viewBox="0 0 500 500"><defs><style>.cls-1{stroke-width:13.01px;}.cls-1,.cls-2,.cls-3,.cls-4,.cls-5{stroke-miterlimit:10;}.cls-1,.cls-3{fill:#e68c28;stroke:#e68c28;}.cls-2,.cls-3{stroke-width:18.08px;}.cls-2,.cls-4,.cls-5{fill:#993;stroke:#993;}.cls-4{stroke-width:13.47px;}.cls-5{stroke-width:15.23px;}</style></defs><path class="cls-2" d="m155.3,194.67s-25.91,5.88-46.75-7.68c-21.62-14.07-30.56-39.48-30.56-39.48,0,0,28.42-4.37,41.87,2.51,23,11.77,35.12,43.83,35.44,44.65Z"/><path class="cls-2" d="m229.83,87.9s7.58,33.41-9.9,60.27c-18.14,27.87-50.9,39.39-50.9,39.39,0,0-5.64-36.64,3.23-53.97,15.17-29.65,56.51-45.27,57.56-45.69Z"/><circle class="cls-3" cx="185.02" cy="282.28" r="85.56"/><path class="cls-5" d="m375.31,245.74s-18.97-1.6-31.68-20.39c-13.19-19.5-15.91-46.32-15.91-46.32,0,0,20.52,3.74,28.98,14.08,14.47,17.68,18.5,51.76,18.61,52.63Z"/><path class="cls-4" d="m441.47,166.88s3.61,21.55-13.43,40.85c-17.69,20.03-46.37,30.43-46.37,30.43,0,0-1.69-23.86,7.27-36.11,15.33-20.96,51.61-34.81,52.54-35.17Z"/><ellipse class="cls-1" cx="333.71" cy="343.19" rx="101.2" ry="37.44" transform="translate(-130.36 460.6) rotate(-60)"/><path class="cls-4" d="m471.7,225.41s-10.12,19.36-35.37,24.47c-26.19,5.3-55.34-3.72-55.34-3.72,0,0,13.05-20.04,27.59-24.41,24.87-7.46,62.16,3.39,63.12,3.66Z"/></svg>