<?xml version="1.0" encoding="UTF-8"?><svg id="Ebene_2_Kopie" xmlns="http://www.w3.org/2000/svg" viewBox="0 0 500 500"><defs><style>.cls-1{fill:#993;stroke:#993;}.cls-1,.cls-2{stroke-linecap:round;stroke-linejoin:round;stroke-width:25px;}.cls-2{fill:none;stroke:#fff;}</style></defs><path class="cls-1" d="m90.82,108.76s-18.54,182.81-2.73,247.32c15.82,64.51-23.63,73.32-15.7,91.63,7.93,18.31,332.93,19.96,359.28,9.74,26.35-10.22-6.63-64.83-6.63-64.83,0,0-.08-254.66,5.82-266.02,5.9-11.36,42.58-55.4,11.26-69.17-31.33-13.77-117.05,16.61-183.67,15.22-66.62-1.39-127.7-39.65-153.18-36.9-25.48,2.75-28.71,34.46-14.45,73Z"/><path class="cls-2" d="m261.71,323.81s52.84-2.26,80.1-33.46c28.29-32.37,23.67-77.24,23.67-77.24,0,0-56.23,5.82-75.37,22.95-32.75,29.3-28.48,86.29-28.39,87.75Z"/><path class="cls-2" d="m261.68,323.81s-53.65-10.87-85.04-46.81c-32.57-37.29-33.44-81.85-33.44-81.85,0,0,57.5,15.01,78.96,35.43,36.7,34.92,39.42,91.78,39.51,93.24Z"/><line class="cls-2" x1="261.24" y1="321.76" x2="263.39" y2="361.17"/></svg>