<?xml version="1.0" encoding="UTF-8"?><svg id="Ebene_2_Kopie" xmlns="http://www.w3.org/2000/svg" viewBox="0 0 500 500"><defs><style>.cls-1{fill:#993;stroke:#993;stroke-miterlimit:10;stroke-width:25px;}</style></defs><path class="cls-1" d="m215.47,98.5s-88.38,89.74-114.2,129.02c-35.91,54.64-37.6,103.45,25.99,119.16,77.17,19.07,98.55-38.96,90.61-95.15-9.31-65.86-2.41-153.03-2.41-153.03Z"/><path class="cls-1" d="m356.98,62.19s-46.64,47.35-60.26,68.08c-18.95,28.83-19.84,54.59,13.72,62.88,40.72,10.06,52.01-20.56,47.81-50.21-4.91-34.75-1.27-80.75-1.27-80.75Z"/><path class="cls-1" d="m353.79,292.88s-60.69,61.63-78.42,88.6c-24.66,37.53-25.82,71.04,17.85,81.83,53,13.09,67.68-26.75,62.23-65.34-6.39-45.23-1.65-105.09-1.65-105.09Z"/></svg>